<svg width="199" height="72" viewBox="0 0 199 72" fill="none" xmlns="http://www.w3.org/2000/svg">
<rect x="0.398438" y="18.5217" width="49.3912" height="52.4782" rx="12.3478" fill="white"/>
<path fill-rule="evenodd" clip-rule="evenodd" d="M66.7694 49.3912C80.4084 49.3912 91.465 38.3346 91.465 24.6956C91.465 11.0566 80.4084 0 66.7694 0C54.2392 0 43.8886 9.33195 42.2884 21.425C42.279 21.4964 42.2297 21.5568 42.1614 21.5796C42.106 21.598 42.0623 21.6413 42.0433 21.6965L30.7196 54.6383C27.964 62.6546 33.9201 71.0001 42.3968 71.0001H50.8192C56.2183 71.0001 60.5952 66.6232 60.5952 61.2241V54.8527C60.5952 51.6921 63.6088 49.3912 66.7694 49.3912Z" fill="white"/>
<path d="M95.6562 60.0719C95.0416 60.0719 94.5647 59.9023 94.2256 59.5632C93.9077 59.2241 93.7487 58.7367 93.7487 58.1008V39.1849C93.7487 38.5279 93.9077 38.0298 94.2256 37.6907C94.5647 37.3304 94.9992 37.1502 95.5291 37.1502C96.0165 37.1502 96.3768 37.2456 96.61 37.4364C96.8643 37.6059 97.161 37.9026 97.5001 38.3265L109.676 54.1269H108.85V39.0895C108.85 38.4749 109.009 37.998 109.327 37.6589C109.666 37.3198 110.143 37.1502 110.757 37.1502C111.372 37.1502 111.838 37.3198 112.156 37.6589C112.474 37.998 112.633 38.4749 112.633 39.0895V58.1644C112.633 58.7578 112.485 59.2241 112.188 59.5632C111.891 59.9023 111.488 60.0719 110.98 60.0719C110.492 60.0719 110.1 59.9765 109.803 59.7858C109.528 59.595 109.221 59.2877 108.881 58.8638L96.7371 43.0634H97.5319V58.1008C97.5319 58.7367 97.373 59.2241 97.055 59.5632C96.7371 59.9023 96.2709 60.0719 95.6562 60.0719ZM124.811 60.1355C123.051 60.1355 121.536 59.807 120.264 59.1499C118.993 58.4929 118.007 57.5604 117.308 56.3523C116.629 55.1442 116.29 53.7136 116.29 52.0604C116.29 50.4497 116.619 49.0402 117.276 47.8322C117.954 46.6241 118.876 45.6809 120.042 45.0027C121.229 44.3033 122.575 43.9536 124.079 43.9536C125.181 43.9536 126.167 44.1338 127.036 44.4941C127.926 44.8544 128.678 45.3736 129.293 46.0518C129.929 46.7301 130.406 47.5566 130.724 48.5316C131.063 49.4853 131.232 50.5662 131.232 51.7743C131.232 52.1558 131.095 52.4525 130.819 52.6645C130.565 52.8552 130.194 52.9506 129.706 52.9506H119.501V50.6616H128.435L127.926 51.1385C127.926 50.1635 127.778 49.3476 127.481 48.6905C127.205 48.0335 126.792 47.5355 126.241 47.1963C125.711 46.836 125.044 46.6559 124.238 46.6559C123.348 46.6559 122.585 46.8678 121.949 47.2917C121.335 47.6944 120.858 48.2773 120.519 49.0402C120.201 49.782 120.042 50.6722 120.042 51.7107V51.9333C120.042 53.6712 120.444 54.9747 121.25 55.8436C122.076 56.6914 123.285 57.1153 124.874 57.1153C125.425 57.1153 126.04 57.0517 126.718 56.9245C127.417 56.7762 128.074 56.5324 128.689 56.1933C129.134 55.939 129.526 55.833 129.865 55.8754C130.204 55.8966 130.469 56.0132 130.66 56.2251C130.872 56.4371 130.999 56.702 131.042 57.0199C131.084 57.3166 131.02 57.624 130.851 57.9419C130.703 58.2598 130.438 58.5353 130.056 58.7684C129.314 59.2347 128.456 59.5844 127.481 59.8176C126.527 60.0295 125.637 60.1355 124.811 60.1355ZM141.439 60.1355C140.061 60.1355 138.906 59.9023 137.973 59.4361C137.062 58.9698 136.384 58.2916 135.939 57.4014C135.494 56.4901 135.271 55.3668 135.271 54.0315V47.2599H133.618C133.109 47.2599 132.717 47.1328 132.442 46.8784C132.166 46.6029 132.028 46.232 132.028 45.7657C132.028 45.2783 132.166 44.9074 132.442 44.653C132.717 44.3987 133.109 44.2715 133.618 44.2715H135.271V41.3785C135.271 40.7215 135.441 40.2234 135.78 39.8843C136.14 39.5452 136.638 39.3756 137.274 39.3756C137.91 39.3756 138.397 39.5452 138.736 39.8843C139.076 40.2234 139.245 40.7215 139.245 41.3785V44.2715H142.615C143.124 44.2715 143.516 44.3987 143.791 44.653C144.067 44.9074 144.205 45.2783 144.205 45.7657C144.205 46.232 144.067 46.6029 143.791 46.8784C143.516 47.1328 143.124 47.2599 142.615 47.2599H139.245V53.809C139.245 54.8263 139.468 55.5893 139.913 56.098C140.358 56.6066 141.078 56.861 142.075 56.861C142.435 56.861 142.753 56.8292 143.028 56.7656C143.304 56.702 143.548 56.6596 143.759 56.6384C144.014 56.6172 144.226 56.702 144.395 56.8927C144.565 57.0623 144.65 57.4226 144.65 57.9737C144.65 58.3975 144.575 58.779 144.427 59.1182C144.3 59.4361 144.056 59.6586 143.696 59.7858C143.42 59.8706 143.06 59.9447 142.615 60.0083C142.17 60.0931 141.778 60.1355 141.439 60.1355ZM148.935 60.0719C148.278 60.0719 147.769 59.8917 147.409 59.5314C147.07 59.1499 146.9 58.6307 146.9 57.9737V39.471C146.9 38.7928 147.08 38.2841 147.441 37.945C147.801 37.5847 148.31 37.4046 148.967 37.4046H156.628C159.087 37.4046 160.984 38.0192 162.319 39.2485C163.654 40.4777 164.322 42.1945 164.322 44.3987C164.322 46.6029 163.654 48.3302 162.319 49.5807C160.984 50.81 159.087 51.4246 156.628 51.4246H150.969V57.9737C150.969 58.6307 150.8 59.1499 150.461 59.5314C150.122 59.8917 149.613 60.0719 148.935 60.0719ZM150.969 48.2137H155.993C157.434 48.2137 158.525 47.8958 159.267 47.2599C160.009 46.6029 160.38 45.6492 160.38 44.3987C160.38 43.1482 160.009 42.2051 159.267 41.5692C158.525 40.9334 157.434 40.6155 155.993 40.6155H150.969V48.2137ZM171.631 60.1355C170.508 60.1355 169.501 59.9235 168.611 59.4997C167.742 59.0546 167.053 58.4611 166.544 57.7193C166.057 56.9775 165.813 56.1403 165.813 55.2078C165.813 54.0633 166.11 53.1625 166.703 52.5055C167.297 51.8273 168.261 51.3398 169.596 51.0431C170.932 50.7464 172.722 50.598 174.969 50.598H176.559V52.887H175.001C173.687 52.887 172.638 52.9506 171.853 53.0778C171.069 53.2049 170.508 53.4275 170.169 53.7454C169.851 54.0421 169.692 54.466 169.692 55.017C169.692 55.7165 169.935 56.2887 170.423 56.7338C170.91 57.1789 171.589 57.4014 172.458 57.4014C173.157 57.4014 173.772 57.2425 174.301 56.9245C174.852 56.5854 175.287 56.1298 175.605 55.5575C175.923 54.9853 176.082 54.3282 176.082 53.5864V49.9304C176.082 48.8707 175.849 48.1077 175.382 47.6414C174.916 47.1751 174.132 46.942 173.03 46.942C172.415 46.942 171.748 47.0162 171.027 47.1645C170.327 47.3129 169.586 47.5672 168.801 47.9275C168.399 48.1183 168.038 48.1713 167.721 48.0865C167.424 48.0017 167.191 47.8322 167.021 47.5778C166.852 47.3023 166.767 47.0056 166.767 46.6877C166.767 46.3698 166.852 46.0624 167.021 45.7657C167.191 45.4478 167.477 45.2147 167.88 45.0663C168.854 44.6636 169.787 44.3775 170.677 44.2079C171.589 44.0384 172.415 43.9536 173.157 43.9536C174.683 43.9536 175.933 44.1867 176.908 44.653C177.904 45.1193 178.646 45.8293 179.134 46.7831C179.621 47.7156 179.865 48.9237 179.865 50.4073V58.0372C179.865 58.6943 179.706 59.2029 179.388 59.5632C179.07 59.9023 178.614 60.0719 178.021 60.0719C177.428 60.0719 176.961 59.9023 176.622 59.5632C176.304 59.2029 176.145 58.6943 176.145 58.0372V56.5113H176.4C176.251 57.2531 175.955 57.8995 175.51 58.4505C175.086 58.9804 174.545 59.3937 173.888 59.6904C173.231 59.9871 172.479 60.1355 171.631 60.1355ZM187.685 65.7944C187.219 65.7944 186.838 65.6672 186.541 65.4129C186.244 65.1797 186.064 64.8618 186 64.4591C185.958 64.0564 186.032 63.6325 186.223 63.1875L188.385 58.3869V60.0401L182.599 46.6559C182.408 46.1896 182.344 45.7551 182.408 45.3524C182.472 44.9497 182.662 44.6318 182.98 44.3987C183.319 44.1444 183.775 44.0172 184.347 44.0172C184.835 44.0172 185.227 44.1338 185.524 44.3669C185.82 44.5788 186.085 44.9921 186.318 45.6068L190.61 56.3205H189.656L194.044 45.575C194.277 44.9815 194.552 44.5788 194.87 44.3669C195.188 44.1338 195.612 44.0172 196.142 44.0172C196.608 44.0172 196.979 44.1444 197.255 44.3987C197.53 44.6318 197.7 44.9497 197.763 45.3524C197.827 45.7339 197.753 46.1578 197.541 46.6241L189.815 64.2684C189.54 64.8618 189.243 65.2645 188.925 65.4765C188.607 65.6884 188.194 65.7944 187.685 65.7944Z" fill="white"/>
</svg>
