<svg width="26" height="25" viewBox="0 0 26 25" fill="none" xmlns="http://www.w3.org/2000/svg">
<path d="M22.8065 0.408203H2.26065C1.60494 0.408203 1.00386 0.949964 1.00386 1.65425V3.92965C1.00386 4.63394 1.60494 5.22987 2.26065 5.22987H22.8065C23.5168 5.22987 24.0632 4.63394 24.1179 3.92965V1.70843C24.1179 0.949964 23.5168 0.408203 22.8065 0.408203ZM22.8065 13.1938H2.26065C1.93279 13.1938 1.60494 13.3563 1.33172 13.573C1.11315 13.7897 0.949219 14.1147 0.949219 14.494V16.7694C0.949219 17.4737 1.55029 18.0696 2.20601 18.0696H22.7518C23.4622 18.0696 24.0086 17.5278 24.0632 16.7694V14.494C24.1179 13.7355 23.5168 13.1938 22.8065 13.1938ZM13.845 19.5324H2.26065C1.93279 19.5324 1.60494 19.6407 1.38636 19.9116C1.16779 20.1283 1.00386 20.4534 1.00386 20.8326V23.108C1.00386 23.8123 1.60494 24.4082 2.26065 24.4082H13.7903C14.5007 24.4082 15.0471 23.8123 15.0471 23.108V20.7784C15.1018 20.1283 14.5553 19.5324 13.845 19.5324ZM24.1179 6.80098H2.26065C1.93279 6.80098 1.60494 6.90933 1.38636 7.18021C1.16779 7.39692 1.00386 7.72197 1.00386 8.10121V10.3766C1.00386 11.0809 1.60494 11.6768 2.26065 11.6768H24.0632C24.7736 11.6768 25.32 11.0809 25.32 10.3766V8.10121C25.3747 7.34274 24.8282 6.80098 24.1179 6.80098Z" fill="#00C3F7"/>
</svg>
