<svg width="180" height="162" viewBox="0 0 180 162" fill="none" xmlns="http://www.w3.org/2000/svg">
<path d="M77.0325 99.0166L86.8256 93.4971C95.5409 88.5859 105.687 87.0949 115.266 89.3191L128.46 92.383C132.655 93.3572 136.102 88.7844 134.011 85.0199L127.637 73.5485C122.739 64.7318 121.438 54.2735 124.003 44.3343L126.974 32.8245C128.076 28.5533 123.581 25.1647 119.778 27.4004L109.531 33.4249C100.682 38.6275 90.2696 40.2563 80.4451 37.975L67.6625 35.0067C63.4674 34.0325 60.0205 38.6053 62.1121 42.3699L68.6907 54.211C73.4661 62.8065 74.8265 72.9714 72.5045 82.7018L69.8949 93.6364C68.8921 97.8391 73.2681 101.138 77.0325 99.0166ZM97.8954 146.155L100.651 144.601C105.563 141.831 111.284 140.989 116.686 142.242L120.84 143.205C123.087 143.726 124.931 141.28 123.812 139.263L121.858 135.743C119.097 130.77 118.365 124.873 119.812 119.27L120.661 115.987C121.252 113.698 118.841 111.881 116.804 113.079L113.881 114.799C108.894 117.734 103.023 118.653 97.4819 117.368L93.5597 116.459C91.3132 115.938 89.4693 118.384 90.5885 120.401L92.6581 124.13C95.3501 128.978 96.1155 134.71 94.8047 140.195L94.07 143.272C93.5316 145.524 95.8783 147.293 97.8954 146.155Z" fill="white" fill-opacity="0.28"/>
<path d="M33.8419 126.051L39.7337 122.73C44.977 119.776 51.0814 118.879 56.8439 120.217L64.7821 122.06C67.3058 122.646 69.3796 119.895 68.1214 117.63L64.2871 110.729C61.3402 105.424 60.5575 99.1324 62.1007 93.1527L63.8878 86.2281C64.551 83.6584 61.8464 81.6197 59.5587 82.9648L53.3937 86.5893C48.07 89.7193 41.8057 90.6992 35.895 89.3267L28.2046 87.541C25.6808 86.9549 23.607 89.706 24.8654 91.9708L28.8232 99.0947C31.6962 104.266 32.5147 110.381 31.1178 116.236L29.5477 122.814C28.9444 125.343 31.5771 127.327 33.8419 126.051ZM46.3935 154.411L48.0512 153.476C51.0065 151.809 54.4484 151.303 57.6984 152.056L60.1979 152.636C61.5497 152.949 62.659 151.477 61.9854 150.264L60.8101 148.147C59.149 145.154 58.7084 141.607 59.5791 138.236L60.0898 136.261C60.4454 134.884 58.9951 133.791 57.7694 134.511L56.0109 135.546C53.0105 137.312 49.4786 137.865 46.1448 137.092L43.7851 136.545C42.4335 136.232 41.3242 137.703 41.9976 138.916L43.2427 141.16C44.8622 144.077 45.3227 147.525 44.5341 150.825L44.0921 152.676C43.7682 154.031 45.18 155.095 46.3935 154.411Z" fill="white" fill-opacity="0.28"/>
</svg>
