<svg width="32" height="32" viewBox="0 0 32 32" fill="none" xmlns="http://www.w3.org/2000/svg">
<rect width="32" height="32" rx="4" fill="#00CED1" fill-opacity="0.2"/>
<g clip-path="url(#clip0_718_17311)">
<path d="M22.4396 16.4067L15.9996 10L9.55965 16.4067C9.48367 16.4645 9.421 16.538 9.3759 16.6222C9.3308 16.7064 9.30431 16.7993 9.29823 16.8946C9.29215 16.9899 9.30662 17.0854 9.34065 17.1747C9.37469 17.2639 9.4275 17.3448 9.49552 17.4118C9.56353 17.4789 9.64515 17.5305 9.73486 17.5633C9.82457 17.596 9.92028 17.6091 10.0155 17.6017C10.1107 17.5943 10.2032 17.5664 10.2867 17.5201C10.3703 17.4738 10.4429 17.4101 10.4996 17.3333L15.333 12.54V25.2933C15.333 25.4701 15.4032 25.6397 15.5282 25.7647C15.6533 25.8898 15.8228 25.96 15.9996 25.96C16.1765 25.96 16.346 25.8898 16.4711 25.7647C16.5961 25.6397 16.6663 25.4701 16.6663 25.2933V12.54L21.4996 17.3333C21.6252 17.458 21.7951 17.5277 21.972 17.527C22.1489 17.5264 22.3183 17.4555 22.443 17.33C22.5676 17.2045 22.6373 17.0346 22.6367 16.8576C22.6361 16.6807 22.5652 16.5113 22.4396 16.3867V16.4067Z" fill="#008080"/>
</g>
<defs>
<clipPath id="clip0_718_17311">
<rect width="24" height="24" fill="white" transform="translate(4 6)"/>
</clipPath>
</defs>
</svg>
