<svg width="32" height="32" viewBox="0 0 32 32" fill="none" xmlns="http://www.w3.org/2000/svg">
<rect width="32" height="32" rx="4" fill="#D10019" fill-opacity="0.2"/>
<g clip-path="url(#clip0_719_17341)">
<path d="M22.4396 17.5933L15.9996 24L9.55965 17.5933C9.48367 17.5355 9.421 17.462 9.3759 17.3778C9.3308 17.2936 9.30431 17.2007 9.29823 17.1054C9.29215 17.0101 9.30662 16.9146 9.34065 16.8253C9.37469 16.7361 9.4275 16.6552 9.49552 16.5882C9.56353 16.5211 9.64515 16.4695 9.73486 16.4367C9.82457 16.404 9.92028 16.3909 10.0155 16.3983C10.1107 16.4057 10.2032 16.4336 10.2867 16.4799C10.3703 16.5262 10.4429 16.5899 10.4996 16.6667L15.333 21.46V8.70667C15.333 8.52986 15.4032 8.36029 15.5282 8.23526C15.6533 8.11024 15.8228 8.04 15.9996 8.04C16.1765 8.04 16.346 8.11024 16.4711 8.23526C16.5961 8.36029 16.6663 8.52986 16.6663 8.70667V21.46L21.4996 16.6667C21.6252 16.542 21.7951 16.4723 21.972 16.473C22.1489 16.4736 22.3183 16.5445 22.443 16.67C22.5676 16.7955 22.6373 16.9654 22.6367 17.1424C22.6361 17.3193 22.5652 17.4887 22.4396 17.6133V17.5933Z" fill="#D10019"/>
</g>
<defs>
<clipPath id="clip0_719_17341">
<rect width="24" height="24" fill="white" transform="matrix(1 0 0 -1 4 28)"/>
</clipPath>
</defs>
</svg>
